# xmcd
#
# Track frame offsets: 
#        150
#        11918
#        23416
#        36939
#        47252
#        58067
#        71305
#        84393
#        96596
#        108776
#        119584
#        132027
#        143765
#        155675
#        170255
#        180448
#        193318
#        204733
#        217033
#        227218
#        240096
#        252411
#        264254
#        280799
#
# Disc length: 3891 seconds
#
# Revision: 0
# Processed by: cddbd v1.5.2PL0 Copyright (c) Steve Scherf et al.
# Submitted via: ExactAudioCopyFreeDBPlugin 1.0
#
DISCID=4c0f3118
DTITLE=Various Artist - Finders Keepers, Motown Girls 1961 - 67
DYEAR=1900
DGENRE=Blues
TTITLE0=The Velvelettes - Let Love Live (A Little Bit Longer)
TTITLE1=Brenda Holloway - Don't Turn Back On Me
TTITLE2=Gladys Knight and The Pips - When Somebody Loves You (You're Nev
TTITLE2=er Alone)
TTITLE3=Martha and The Vandellas - No More Tearstained Make Up
TTITLE4=The Marvelettes - Finders Keepers, Losers Weepers
TTITLE5=Labrenda Ben - Do You Know What I'm Talkin' About
TTITLE6=Mary Wells - What's Easy For Two Is So Hard For One
TTITLE7=Thelma Brown - Dance Yeah Dance
TTITLE8=The Andantes - (Like A) Nightmare
TTITLE9=The Supremes - Long Gone Lover
TTITLE10=Carolyn Crawford - Lover Boy
TTITLE11=Brenda Holloway - Till Johnny Comes
TTITLE12=Saundra Mallet and The Vandellas - Camel Walk
TTITLE13=Hattie Littles - My Black Belt
TTITLE14=Martha and The Vandellas - Build Him Up
TTITLE15=Labrenda Ben - I Can't Help, I Gotta Dance
TTITLE16=The Supremes - Buttered Popcorn
TTITLE17=The Marvelettes - Grass Seems Greener (On The Other Side)
TTITLE18=The Miracles - He Don't Care About Me
TTITLE19=The Vells - You'll Never Carish A Love So True ('til You Lose
TTITLE19=It)
TTITLE20=Anita Knorl - If Wishes Came True
TTITLE21=Linda Griner - So Let Them Laugh
TTITLE22=Liz Lands - I Gotta Right To Sing The Blues
TTITLE23=Kim Weston - It's Too Soon To Know
EXTD=
EXTT0=
EXTT1=
EXTT2=
EXTT3=
EXTT4=
EXTT5=
EXTT6=
EXTT7=
EXTT8=
EXTT9=
EXTT10=
EXTT11=
EXTT12=
EXTT13=
EXTT14=
EXTT15=
EXTT16=
EXTT17=
EXTT18=
EXTT19=
EXTT20=
EXTT21=
EXTT22=
EXTT23=
PLAYORDER=
